<svg xmlns="http://www.w3.org/2000/svg" viewBox="0 0 512 512" fill="none">
  <!-- Folder body -->
  <rect x="48" y="140" width="416" height="300" rx="24" fill="#3B82F6"/>
  <!-- Folder tab -->
  <path d="M48 164V120a24 24 0 0 1 24-24h120l40 48h232a24 24 0 0 1 24 24v-4H48z" fill="#60A5FA"/>
  <!-- Document icon (white, inside folder) -->
  <rect x="180" y="210" width="120" height="150" rx="8" fill="white" opacity="0.9"/>
  <path d="M260 210h-8l40 40v-8a32 32 0 0 0-32-32z" fill="white" opacity="0.6"/>
  <!-- Document lines -->
  <rect x="200" y="270" width="80" height="6" rx="3" fill="#3B82F6" opacity="0.4"/>
  <rect x="200" y="290" width="60" height="6" rx="3" fill="#3B82F6" opacity="0.4"/>
  <rect x="200" y="310" width="70" height="6" rx="3" fill="#3B82F6" opacity="0.4"/>
  <rect x="200" y="330" width="40" height="6" rx="3" fill="#3B82F6" opacity="0.4"/>
  <!-- Share arrow (bottom-right) -->
  <circle cx="370" cy="370" r="60" fill="#1D4ED8"/>
  <path d="M370 340v30h-40a10 10 0 0 0 0 20h40v-50z" fill="none"/>
  <path d="M350 350l20-20 20 20" stroke="white" stroke-width="8" stroke-linecap="round" stroke-linejoin="round" fill="none"/>
  <line x1="370" y1="332" x2="370" y2="385" stroke="white" stroke-width="8" stroke-linecap="round"/>
  <path d="M345 385a30 30 0 0 0 50 0" stroke="white" stroke-width="8" stroke-linecap="round" fill="none"/>
</svg>
